<svg width="397" height="460" viewBox="0 0 397 460" fill="none" xmlns="http://www.w3.org/2000/svg">
<g filter="url(#filter0_d_24_3)">
<path d="M3 96.9663C3 75.4272 20.4609 57.9663 42 57.9663H350.217C371.756 57.9663 389.217 75.4272 389.217 96.9663V411.599C389.217 433.138 371.756 450.599 350.217 450.599H42C20.4609 450.599 3 433.138 3 411.599V96.9663Z" fill="#F7F9FF"/>
</g>
<g filter="url(#filter1_d_24_3)">
<path d="M3.10423 77.1069C3.10423 62.4304 15.3672 49.6491 32.8136 46.1418L183.126 15.924C189.129 14.7172 195.397 14.6922 201.414 15.851L359.624 46.3212C377.25 49.7158 389.704 62.5665 389.704 77.3592V98.7718C389 121 390.5 121.5 373.971 121H20.1211C0.601639 121 3.10426 121 3.10423 98.7718V77.1069Z" fill="#F7F9FF"/>
</g>
<g filter="url(#filter2_d_24_3)">
<path d="M182.934 12.2678C182.934 9.76038 184.493 7.51738 186.843 6.64376L190.254 5.37596C191.602 4.87468 193.086 4.87468 194.435 5.37596L197.846 6.64376C200.196 7.51738 201.755 9.76038 201.755 12.2678V18.4211C201.755 21.7348 199.069 24.4211 195.755 24.4211H188.934C185.62 24.4211 182.934 21.7348 182.934 18.4211V12.2678Z" fill="#F7F9FF"/>
</g>
<path d="M308.78 72.2543L303.04 72.4078C302.98 71.9987 302.818 71.6365 302.554 71.3211C302.29 70.9972 301.945 70.7458 301.519 70.5668C301.101 70.3793 300.615 70.2856 300.061 70.2856C299.337 70.2856 298.719 70.4305 298.208 70.7203C297.705 71.01 297.458 71.4021 297.466 71.8964C297.458 72.2799 297.611 72.6123 297.926 72.8936C298.25 73.1748 298.826 73.4007 299.652 73.5711L303.436 74.287C305.397 74.662 306.854 75.2842 307.809 76.1535C308.772 77.0228 309.257 78.1734 309.266 79.6052C309.257 80.9518 308.857 82.1237 308.064 83.1208C307.28 84.118 306.206 84.8936 304.843 85.4475C303.479 85.993 301.919 86.2657 300.164 86.2657C297.36 86.2657 295.148 85.6904 293.529 84.5399C291.918 83.3808 290.997 81.8296 290.767 79.8865L296.942 79.733C297.078 80.449 297.432 80.9944 298.003 81.3694C298.574 81.7444 299.303 81.9319 300.189 81.9319C300.99 81.9319 301.642 81.7828 302.145 81.4845C302.648 81.1862 302.904 80.7899 302.912 80.2955C302.904 79.8524 302.708 79.4987 302.324 79.2345C301.941 78.9617 301.34 78.7487 300.522 78.5953L297.095 77.9433C295.127 77.5853 293.661 76.9248 292.698 75.9617C291.735 74.9901 291.257 73.7543 291.266 72.2543C291.257 70.9418 291.607 69.8211 292.314 68.8921C293.022 67.9546 294.027 67.2387 295.331 66.7444C296.635 66.2501 298.174 66.0029 299.946 66.0029C302.605 66.0029 304.702 66.5612 306.236 67.6776C307.77 68.7856 308.618 70.3112 308.78 72.2543Z" fill="#12182B"/>
<path d="M275.072 74.6961V85.895H268.82V66.2586H274.765V69.8637H274.982C275.417 68.662 276.158 67.7203 277.207 67.0384C278.255 66.3481 279.504 66.0029 280.952 66.0029C282.333 66.0029 283.531 66.314 284.545 66.9362C285.567 67.5498 286.36 68.4106 286.923 69.5186C287.494 70.618 287.775 71.9049 287.766 73.3793V85.895H281.515V74.6066C281.523 73.5157 281.246 72.6634 280.684 72.0498C280.13 71.4362 279.359 71.1293 278.37 71.1293C277.714 71.1293 277.134 71.2742 276.631 71.564C276.137 71.8453 275.754 72.2501 275.481 72.7785C275.217 73.3069 275.08 73.9461 275.072 74.6961Z" fill="#12182B"/>
<path d="M255.698 86.2657C253.635 86.2657 251.862 85.8438 250.379 85.0001C248.905 84.1478 247.767 82.9632 246.966 81.4461C246.173 79.9205 245.777 78.1521 245.777 76.1407C245.777 74.1208 246.173 72.3524 246.966 70.8353C247.767 69.3097 248.905 68.1251 250.379 67.2813C251.862 66.4291 253.635 66.0029 255.698 66.0029C257.76 66.0029 259.529 66.4291 261.003 67.2813C262.486 68.1251 263.624 69.3097 264.416 70.8353C265.217 72.3524 265.618 74.1208 265.618 76.1407C265.618 78.1521 265.217 79.9205 264.416 81.4461C263.624 82.9632 262.486 84.1478 261.003 85.0001C259.529 85.8438 257.76 86.2657 255.698 86.2657ZM255.736 81.5484C256.486 81.5484 257.121 81.3183 257.641 80.858C258.161 80.3978 258.557 79.7586 258.83 78.9404C259.111 78.1222 259.252 77.1762 259.252 76.1024C259.252 75.0115 259.111 74.0569 258.83 73.2387C258.557 72.4205 258.161 71.7813 257.641 71.3211C257.121 70.8609 256.486 70.6308 255.736 70.6308C254.96 70.6308 254.304 70.8609 253.767 71.3211C253.239 71.7813 252.834 72.4205 252.553 73.2387C252.28 74.0569 252.144 75.0115 252.144 76.1024C252.144 77.1762 252.28 78.1222 252.553 78.9404C252.834 79.7586 253.239 80.3978 253.767 80.858C254.304 81.3183 254.96 81.5484 255.736 81.5484Z" fill="#12182B"/>
<path d="M236.301 85.8949V66.2585H242.552V85.8949H236.301ZM239.433 63.9702C238.555 63.9702 237.801 63.6804 237.17 63.1009C236.539 62.5128 236.224 61.8054 236.224 60.9787C236.224 60.1605 236.539 59.4616 237.17 58.8821C237.801 58.294 238.555 58 239.433 58C240.319 58 241.074 58.294 241.696 58.8821C242.326 59.4616 242.642 60.1605 242.642 60.9787C242.642 61.8054 242.326 62.5128 241.696 63.1009C241.074 63.6804 240.319 63.9702 239.433 63.9702Z" fill="#12182B"/>
<path d="M233.111 66.2585V70.8608H220.723V66.2585H233.111ZM223.319 61.554H229.57V79.7201C229.57 80.1037 229.63 80.4148 229.749 80.6534C229.877 80.8835 230.06 81.0497 230.299 81.152C230.537 81.2457 230.823 81.2926 231.155 81.2926C231.394 81.2926 231.645 81.2713 231.909 81.2287C232.182 81.1775 232.387 81.1349 232.523 81.1008L233.469 85.6136C233.171 85.6988 232.749 85.8054 232.204 85.9332C231.667 86.0611 231.023 86.142 230.273 86.1761C228.807 86.2443 227.55 86.0738 226.502 85.6648C225.462 85.2471 224.665 84.5994 224.111 83.7216C223.566 82.8437 223.302 81.74 223.319 80.4105V61.554Z" fill="#12182B"/>
<path d="M206.469 86.2274C205.216 86.2274 204.104 86.0186 203.133 85.6009C202.169 85.1748 201.407 84.5356 200.844 83.6833C200.29 82.8225 200.013 81.7444 200.013 80.449C200.013 79.358 200.205 78.4376 200.588 77.6876C200.972 76.9376 201.5 76.3282 202.174 75.8595C202.847 75.3907 203.623 75.037 204.5 74.7984C205.378 74.5512 206.316 74.385 207.313 74.2998C208.429 74.1975 209.329 74.091 210.01 73.9802C210.692 73.8609 211.186 73.6947 211.493 73.4816C211.809 73.26 211.966 72.949 211.966 72.5484V72.4845C211.966 71.8282 211.74 71.3211 211.289 70.9632C210.837 70.6052 210.228 70.4262 209.461 70.4262C208.634 70.4262 207.969 70.6052 207.466 70.9632C206.963 71.3211 206.644 71.8154 206.508 72.4461L200.742 72.2416C200.912 71.0484 201.351 69.983 202.059 69.0455C202.775 68.0995 203.755 67.358 204.999 66.8211C206.252 66.2757 207.756 66.0029 209.512 66.0029C210.765 66.0029 211.919 66.1521 212.976 66.4504C214.033 66.7401 214.954 67.1663 215.738 67.7288C216.522 68.2828 217.127 68.9646 217.553 69.7742C217.988 70.5839 218.205 71.5086 218.205 72.5484V85.895H212.324V83.1592H212.171C211.821 83.824 211.374 84.3865 210.829 84.8467C210.292 85.3069 209.657 85.6521 208.924 85.8822C208.199 86.1123 207.381 86.2274 206.469 86.2274ZM208.4 82.1365C209.073 82.1365 209.678 82.0001 210.215 81.7274C210.76 81.4546 211.195 81.0796 211.519 80.6024C211.843 80.1166 212.005 79.5541 212.005 78.9149V77.0484C211.826 77.1421 211.608 77.2274 211.353 77.3041C211.106 77.3808 210.833 77.4532 210.534 77.5214C210.236 77.5896 209.929 77.6492 209.614 77.7004C209.299 77.7515 208.996 77.7984 208.706 77.841C208.118 77.9347 207.615 78.0796 207.198 78.2757C206.789 78.4717 206.473 78.7274 206.252 79.0427C206.039 79.3495 205.932 79.716 205.932 80.1421C205.932 80.7899 206.162 81.2842 206.623 81.6251C207.091 81.966 207.684 82.1365 208.4 82.1365Z" fill="#12182B"/>
<path d="M188.619 86.2657C186.548 86.2657 184.771 85.8396 183.288 84.9873C181.814 84.135 180.681 82.9504 179.888 81.4333C179.095 79.9078 178.699 78.1436 178.699 76.1407C178.699 74.1294 179.095 72.3651 179.888 70.8481C180.689 69.3225 181.827 68.1336 183.301 67.2813C184.784 66.4291 186.553 66.0029 188.607 66.0029C190.422 66.0029 192.003 66.3311 193.35 66.9873C194.705 67.6436 195.761 68.5725 196.52 69.7742C197.287 70.9674 197.692 72.3694 197.734 73.9802H191.892C191.773 72.9745 191.432 72.1862 190.869 71.6151C190.315 71.0441 189.591 70.7586 188.696 70.7586C187.972 70.7586 187.337 70.9632 186.791 71.3722C186.246 71.7728 185.82 72.3694 185.513 73.162C185.215 73.9461 185.065 74.9177 185.065 76.0768C185.065 77.2359 185.215 78.216 185.513 79.0171C185.82 79.8097 186.246 80.4106 186.791 80.8197C187.337 81.2203 187.972 81.4205 188.696 81.4205C189.276 81.4205 189.787 81.297 190.23 81.0498C190.682 80.8026 191.053 80.4404 191.342 79.9632C191.632 79.4774 191.815 78.8893 191.892 78.199H197.734C197.675 79.8183 197.27 81.233 196.52 82.4433C195.779 83.6535 194.734 84.5953 193.388 85.2686C192.05 85.9333 190.46 86.2657 188.619 86.2657Z" fill="#12182B"/>
<path d="M169.223 85.8949V66.2585H175.474V85.8949H169.223ZM172.355 63.9702C171.477 63.9702 170.723 63.6804 170.092 63.1009C169.461 62.5128 169.146 61.8054 169.146 60.9787C169.146 60.1605 169.461 59.4616 170.092 58.8821C170.723 58.294 171.477 58 172.355 58C173.241 58 173.995 58.294 174.618 58.8821C175.248 59.4616 175.564 60.1605 175.564 60.9787C175.564 61.8054 175.248 62.5128 174.618 63.1009C173.995 63.6804 173.241 63.9702 172.355 63.9702Z" fill="#12182B"/>
<path d="M166.215 66.2586V70.8608H153.584V66.2586H166.215ZM156.218 85.8949V65.2614C156.218 63.7444 156.504 62.4873 157.075 61.4901C157.646 60.4844 158.438 59.7344 159.452 59.2401C160.467 58.7373 161.638 58.4858 162.968 58.4858C163.837 58.4858 164.656 58.554 165.423 58.6904C166.198 58.8182 166.773 58.9333 167.148 59.0356L166.151 63.6123C165.921 63.5356 165.64 63.4716 165.307 63.4205C164.984 63.3694 164.677 63.3438 164.387 63.3438C163.654 63.3438 163.151 63.5057 162.879 63.8296C162.606 64.1535 162.469 64.5966 162.469 65.1591V85.8949H156.218Z" fill="#12182B"/>
<path d="M144.824 85.8949V66.2585H151.076V85.8949H144.824ZM147.956 63.9702C147.079 63.9702 146.324 63.6804 145.694 63.1009C145.063 62.5128 144.748 61.8054 144.748 60.9787C144.748 60.1605 145.063 59.4616 145.694 58.8821C146.324 58.294 147.079 58 147.956 58C148.843 58 149.597 58.294 150.219 58.8821C150.85 59.4616 151.165 60.1605 151.165 60.9787C151.165 61.8054 150.85 62.5128 150.219 63.1009C149.597 63.6804 148.843 63.9702 147.956 63.9702Z" fill="#12182B"/>
<path d="M141.635 66.2585V70.8608H129.247V66.2585H141.635ZM131.842 61.554H138.093V79.7201C138.093 80.1037 138.153 80.4148 138.272 80.6534C138.4 80.8835 138.583 81.0497 138.822 81.152C139.061 81.2457 139.346 81.2926 139.679 81.2926C139.917 81.2926 140.169 81.2713 140.433 81.2287C140.706 81.1775 140.91 81.1349 141.047 81.1008L141.993 85.6136C141.694 85.6988 141.272 85.8054 140.727 85.9332C140.19 86.0611 139.547 86.142 138.797 86.1761C137.331 86.2443 136.074 86.0738 135.025 85.6648C133.985 85.2471 133.189 84.5994 132.635 83.7216C132.089 82.8437 131.825 81.74 131.842 80.4105V61.554Z" fill="#12182B"/>
<path d="M117.428 86.2657C115.366 86.2657 113.593 85.8438 112.11 85.0001C110.635 84.1478 109.498 82.9632 108.696 81.4461C107.904 79.9205 107.508 78.1521 107.508 76.1407C107.508 74.1208 107.904 72.3524 108.696 70.8353C109.498 69.3097 110.635 68.1251 112.11 67.2813C113.593 66.4291 115.366 66.0029 117.428 66.0029C119.491 66.0029 121.259 66.4291 122.733 67.2813C124.216 68.1251 125.354 69.3097 126.147 70.8353C126.948 72.3524 127.348 74.1208 127.348 76.1407C127.348 78.1521 126.948 79.9205 126.147 81.4461C125.354 82.9632 124.216 84.1478 122.733 85.0001C121.259 85.8438 119.491 86.2657 117.428 86.2657ZM117.466 81.5484C118.216 81.5484 118.851 81.3183 119.371 80.858C119.891 80.3978 120.287 79.7586 120.56 78.9404C120.841 78.1222 120.982 77.1762 120.982 76.1024C120.982 75.0115 120.841 74.0569 120.56 73.2387C120.287 72.4205 119.891 71.7813 119.371 71.3211C118.851 70.8609 118.216 70.6308 117.466 70.6308C116.691 70.6308 116.035 70.8609 115.498 71.3211C114.969 71.7813 114.564 72.4205 114.283 73.2387C114.01 74.0569 113.874 75.0115 113.874 76.1024C113.874 77.1762 114.01 78.1222 114.283 78.9404C114.564 79.7586 114.969 80.3978 115.498 80.858C116.035 81.3183 116.691 81.5484 117.466 81.5484Z" fill="#12182B"/>
<path d="M104.283 59.7131V85.895H98.9134L88.4943 70.7842H88.3281V85.895H82V59.7131H87.446L97.75 74.7984H97.9673V59.7131H104.283Z" fill="#12182B"/>
<g filter="url(#filter3_d_24_3)">
<path d="M115.176 411.895C115.176 400.849 124.13 391.895 135.176 391.895H254.029C265.075 391.895 274.029 400.849 274.029 411.895V417.638C274.029 428.684 265.075 437.638 254.029 437.638H135.176C124.13 437.638 115.176 428.684 115.176 417.638V411.895Z" fill="#12182B"/>
</g>
<path d="M244.901 423.943L242.909 424.161C242.852 423.959 242.754 423.77 242.613 423.593C242.476 423.416 242.291 423.273 242.058 423.164C241.824 423.056 241.538 423.001 241.2 423.001C240.746 423.001 240.363 423.1 240.053 423.297C239.747 423.494 239.597 423.75 239.601 424.064C239.597 424.334 239.695 424.553 239.896 424.722C240.102 424.891 240.44 425.03 240.911 425.139L242.492 425.477C243.37 425.666 244.022 425.966 244.448 426.376C244.879 426.787 245.096 427.324 245.1 427.988C245.096 428.572 244.925 429.087 244.587 429.533C244.253 429.976 243.788 430.322 243.193 430.572C242.597 430.821 241.913 430.946 241.14 430.946C240.005 430.946 239.091 430.709 238.399 430.234C237.707 429.755 237.294 429.089 237.162 428.235L239.293 428.03C239.389 428.449 239.595 428.765 239.908 428.978C240.222 429.191 240.631 429.298 241.134 429.298C241.653 429.298 242.07 429.191 242.384 428.978C242.702 428.765 242.86 428.501 242.86 428.187C242.86 427.922 242.758 427.702 242.553 427.529C242.351 427.356 242.037 427.223 241.611 427.131L240.029 426.799C239.14 426.614 238.482 426.302 238.055 425.863C237.628 425.42 237.417 424.861 237.421 424.185C237.417 423.613 237.572 423.118 237.886 422.7C238.204 422.277 238.645 421.951 239.208 421.722C239.776 421.488 240.43 421.371 241.17 421.371C242.257 421.371 243.112 421.603 243.736 422.066C244.364 422.529 244.752 423.154 244.901 423.943Z" fill="#FFF5F5"/>
<path d="M229.398 425.332V430.765H227.213V421.492H229.301V423.068H229.41C229.623 422.549 229.963 422.136 230.43 421.83C230.901 421.524 231.483 421.371 232.175 421.371C232.815 421.371 233.372 421.508 233.847 421.782C234.326 422.056 234.696 422.452 234.958 422.971C235.224 423.49 235.354 424.12 235.35 424.861V430.765H233.165V425.199C233.165 424.579 233.004 424.094 232.682 423.744C232.364 423.394 231.923 423.219 231.36 423.219C230.978 423.219 230.638 423.303 230.34 423.472C230.046 423.637 229.815 423.877 229.646 424.191C229.481 424.505 229.398 424.885 229.398 425.332Z" fill="#FFF5F5"/>
<path d="M220.915 430.946C220.009 430.946 219.224 430.747 218.56 430.348C217.896 429.95 217.381 429.393 217.015 428.676C216.653 427.96 216.471 427.123 216.471 426.165C216.471 425.207 216.653 424.368 217.015 423.647C217.381 422.927 217.896 422.368 218.56 421.969C219.224 421.571 220.009 421.371 220.915 421.371C221.82 421.371 222.605 421.571 223.269 421.969C223.933 422.368 224.446 422.927 224.808 423.647C225.175 424.368 225.358 425.207 225.358 426.165C225.358 427.123 225.175 427.96 224.808 428.676C224.446 429.393 223.933 429.95 223.269 430.348C222.605 430.747 221.82 430.946 220.915 430.946ZM220.927 429.195C221.418 429.195 221.828 429.06 222.158 428.791C222.488 428.517 222.734 428.151 222.895 427.692C223.06 427.233 223.142 426.722 223.142 426.159C223.142 425.591 223.06 425.078 222.895 424.619C222.734 424.156 222.488 423.788 222.158 423.515C221.828 423.241 221.418 423.104 220.927 423.104C220.424 423.104 220.005 423.241 219.671 423.515C219.341 423.788 219.093 424.156 218.928 424.619C218.767 425.078 218.687 425.591 218.687 426.159C218.687 426.722 218.767 427.233 218.928 427.692C219.093 428.151 219.341 428.517 219.671 428.791C220.005 429.06 220.424 429.195 220.927 429.195Z" fill="#FFF5F5"/>
<path d="M212.437 430.765V421.492H214.623V430.765H212.437ZM213.536 420.176C213.19 420.176 212.892 420.062 212.643 419.832C212.393 419.599 212.268 419.319 212.268 418.993C212.268 418.663 212.393 418.383 212.643 418.154C212.892 417.92 213.19 417.804 213.536 417.804C213.886 417.804 214.184 417.92 214.43 418.154C214.679 418.383 214.804 418.663 214.804 418.993C214.804 419.319 214.679 419.599 214.43 419.832C214.184 420.062 213.886 420.176 213.536 420.176Z" fill="#FFF5F5"/>
<path d="M210.61 421.492V423.183H205.279V421.492H210.61ZM206.595 419.271H208.78V427.976C208.78 428.27 208.825 428.495 208.913 428.652C209.006 428.805 209.127 428.91 209.276 428.966C209.424 429.022 209.589 429.05 209.771 429.05C209.907 429.05 210.032 429.04 210.145 429.02C210.262 429 210.35 428.982 210.41 428.966L210.779 430.674C210.662 430.715 210.495 430.759 210.278 430.807C210.064 430.856 209.803 430.884 209.493 430.892C208.945 430.908 208.452 430.825 208.014 430.644C207.575 430.459 207.227 430.173 206.969 429.787C206.716 429.401 206.591 428.918 206.595 428.338V419.271Z" fill="#FFF5F5"/>
<path d="M198.886 430.952C198.298 430.952 197.769 430.847 197.298 430.638C196.831 430.425 196.461 430.111 196.187 429.696C195.918 429.282 195.783 428.771 195.783 428.163C195.783 427.64 195.88 427.207 196.073 426.865C196.266 426.523 196.53 426.249 196.864 426.044C197.198 425.839 197.574 425.684 197.992 425.579C198.415 425.471 198.852 425.392 199.302 425.344C199.846 425.287 200.287 425.237 200.625 425.193C200.963 425.145 201.208 425.072 201.361 424.976C201.518 424.875 201.597 424.72 201.597 424.511V424.474C201.597 424.02 201.462 423.668 201.192 423.418C200.922 423.168 200.534 423.044 200.027 423.044C199.492 423.044 199.067 423.16 198.753 423.394C198.443 423.627 198.234 423.903 198.125 424.221L196.085 423.931C196.246 423.368 196.511 422.897 196.882 422.518C197.252 422.136 197.705 421.85 198.24 421.661C198.775 421.468 199.367 421.371 200.015 421.371C200.462 421.371 200.906 421.424 201.349 421.528C201.792 421.633 202.196 421.806 202.562 422.048C202.929 422.285 203.222 422.609 203.444 423.02C203.669 423.43 203.782 423.943 203.782 424.559V430.765H201.681V429.491H201.609C201.476 429.749 201.289 429.99 201.047 430.216C200.81 430.437 200.51 430.616 200.148 430.753C199.789 430.886 199.369 430.952 198.886 430.952ZM199.453 429.346C199.892 429.346 200.272 429.26 200.594 429.087C200.916 428.91 201.164 428.676 201.337 428.386C201.514 428.097 201.603 427.781 201.603 427.439V426.346C201.534 426.402 201.417 426.455 201.252 426.503C201.091 426.551 200.91 426.593 200.709 426.63C200.508 426.666 200.309 426.698 200.111 426.726C199.914 426.754 199.743 426.779 199.598 426.799C199.272 426.843 198.981 426.915 198.723 427.016C198.465 427.117 198.262 427.257 198.113 427.439C197.964 427.616 197.89 427.845 197.89 428.127C197.89 428.529 198.037 428.833 198.331 429.038C198.624 429.244 198.999 429.346 199.453 429.346Z" fill="#FFF5F5"/>
<path d="M190.451 430.946C189.525 430.946 188.73 430.743 188.066 430.336C187.406 429.93 186.897 429.368 186.539 428.652C186.185 427.932 186.008 427.103 186.008 426.165C186.008 425.223 186.189 424.392 186.551 423.672C186.913 422.947 187.424 422.384 188.084 421.981C188.748 421.575 189.533 421.371 190.439 421.371C191.191 421.371 191.857 421.51 192.437 421.788C193.02 422.062 193.485 422.45 193.831 422.953C194.178 423.452 194.375 424.036 194.423 424.704H192.334C192.25 424.257 192.049 423.885 191.731 423.587C191.417 423.285 190.996 423.134 190.469 423.134C190.022 423.134 189.63 423.255 189.292 423.496C188.954 423.734 188.69 424.076 188.501 424.523C188.316 424.969 188.223 425.505 188.223 426.129C188.223 426.76 188.316 427.304 188.501 427.759C188.686 428.209 188.946 428.557 189.28 428.803C189.618 429.044 190.014 429.165 190.469 429.165C190.791 429.165 191.079 429.105 191.332 428.984C191.59 428.859 191.805 428.68 191.978 428.447C192.151 428.213 192.27 427.93 192.334 427.596H194.423C194.371 428.252 194.178 428.833 193.844 429.34C193.509 429.843 193.055 430.238 192.479 430.523C191.904 430.805 191.228 430.946 190.451 430.946Z" fill="#FFF5F5"/>
<path d="M181.973 430.765V421.492H184.159V430.765H181.973ZM183.072 420.176C182.726 420.176 182.428 420.062 182.179 419.832C181.929 419.599 181.804 419.319 181.804 418.993C181.804 418.663 181.929 418.383 182.179 418.154C182.428 417.92 182.726 417.804 183.072 417.804C183.422 417.804 183.72 417.92 183.966 418.154C184.215 418.383 184.34 418.663 184.34 418.993C184.34 419.319 184.215 419.599 183.966 419.832C183.72 420.062 183.422 420.176 183.072 420.176Z" fill="#FFF5F5"/>
<path d="M180.262 421.492V423.183H174.78V421.492H180.262ZM176.151 430.765V420.617C176.151 419.993 176.279 419.474 176.537 419.059C176.799 418.645 177.149 418.335 177.587 418.13C178.026 417.924 178.513 417.822 179.048 417.822C179.427 417.822 179.763 417.852 180.057 417.912C180.35 417.973 180.568 418.027 180.709 418.075L180.274 419.766C180.181 419.737 180.065 419.709 179.924 419.681C179.783 419.649 179.626 419.633 179.453 419.633C179.046 419.633 178.759 419.731 178.59 419.929C178.425 420.122 178.342 420.4 178.342 420.762V430.765H176.151Z" fill="#FFF5F5"/>
<path d="M171.133 430.765V421.492H173.318V430.765H171.133ZM172.231 420.176C171.885 420.176 171.587 420.062 171.338 419.832C171.088 419.599 170.964 419.319 170.964 418.993C170.964 418.663 171.088 418.383 171.338 418.154C171.587 417.92 171.885 417.804 172.231 417.804C172.582 417.804 172.879 417.92 173.125 418.154C173.374 418.383 173.499 418.663 173.499 418.993C173.499 419.319 173.374 419.599 173.125 419.832C172.879 420.062 172.582 420.176 172.231 420.176Z" fill="#FFF5F5"/>
<path d="M169.305 421.492V423.183H163.974V421.492H169.305ZM165.29 419.271H167.476V427.976C167.476 428.27 167.52 428.495 167.609 428.652C167.701 428.805 167.822 428.91 167.971 428.966C168.12 429.022 168.285 429.05 168.466 429.05C168.603 429.05 168.727 429.04 168.84 429.02C168.957 429 169.045 428.982 169.106 428.966L169.474 430.674C169.357 430.715 169.19 430.759 168.973 430.807C168.76 430.856 168.498 430.884 168.188 430.892C167.641 430.908 167.148 430.825 166.709 430.644C166.27 430.459 165.922 430.173 165.665 429.787C165.411 429.401 165.286 428.918 165.29 428.338V419.271Z" fill="#FFF5F5"/>
<path d="M158.377 430.946C157.471 430.946 156.686 430.747 156.022 430.348C155.358 429.95 154.843 429.393 154.477 428.676C154.114 427.96 153.933 427.123 153.933 426.165C153.933 425.207 154.114 424.368 154.477 423.647C154.843 422.927 155.358 422.368 156.022 421.969C156.686 421.571 157.471 421.371 158.377 421.371C159.282 421.371 160.067 421.571 160.731 421.969C161.395 422.368 161.908 422.927 162.27 423.647C162.637 424.368 162.82 425.207 162.82 426.165C162.82 427.123 162.637 427.96 162.27 428.676C161.908 429.393 161.395 429.95 160.731 430.348C160.067 430.747 159.282 430.946 158.377 430.946ZM158.389 429.195C158.88 429.195 159.29 429.06 159.62 428.791C159.95 428.517 160.196 428.151 160.357 427.692C160.522 427.233 160.604 426.722 160.604 426.159C160.604 425.591 160.522 425.078 160.357 424.619C160.196 424.156 159.95 423.788 159.62 423.515C159.29 423.241 158.88 423.104 158.389 423.104C157.886 423.104 157.467 423.241 157.133 423.515C156.803 423.788 156.555 424.156 156.39 424.619C156.229 425.078 156.149 425.591 156.149 426.159C156.149 426.722 156.229 427.233 156.39 427.692C156.555 428.151 156.803 428.517 157.133 428.791C157.467 429.06 157.886 429.195 158.389 429.195Z" fill="#FFF5F5"/>
<path d="M146.158 425.332V430.765H143.972V421.492H146.061V423.068H146.17C146.383 422.549 146.723 422.136 147.19 421.83C147.661 421.524 148.243 421.371 148.935 421.371C149.575 421.371 150.132 421.508 150.607 421.782C151.086 422.056 151.456 422.452 151.718 422.971C151.983 423.49 152.114 424.12 152.11 424.861V430.765H149.925V425.199C149.925 424.579 149.764 424.094 149.442 423.744C149.124 423.394 148.683 423.219 148.12 423.219C147.737 423.219 147.397 423.303 147.1 423.472C146.806 423.637 146.574 423.877 146.405 424.191C146.24 424.505 146.158 424.885 146.158 425.332Z" fill="#FFF5F5"/>
<path d="M236.949 402.943L234.957 403.161C234.9 402.959 234.802 402.77 234.661 402.593C234.524 402.416 234.339 402.273 234.105 402.164C233.872 402.056 233.586 402.001 233.248 402.001C232.793 402.001 232.411 402.1 232.101 402.297C231.795 402.494 231.644 402.75 231.648 403.064C231.644 403.334 231.743 403.553 231.944 403.722C232.149 403.891 232.488 404.03 232.958 404.139L234.54 404.477C235.417 404.666 236.069 404.966 236.496 405.376C236.927 405.787 237.144 406.324 237.148 406.988C237.144 407.572 236.973 408.087 236.635 408.533C236.301 408.976 235.836 409.322 235.24 409.572C234.645 409.821 233.961 409.946 233.188 409.946C232.053 409.946 231.139 409.709 230.447 409.234C229.755 408.755 229.342 408.089 229.209 407.235L231.341 407.03C231.437 407.449 231.642 407.765 231.956 407.978C232.27 408.191 232.679 408.298 233.182 408.298C233.701 408.298 234.117 408.191 234.431 407.978C234.749 407.765 234.908 407.501 234.908 407.187C234.908 406.922 234.806 406.702 234.6 406.529C234.399 406.356 234.085 406.223 233.659 406.131L232.077 405.799C231.188 405.614 230.53 405.302 230.103 404.863C229.676 404.42 229.465 403.861 229.469 403.185C229.465 402.613 229.62 402.118 229.934 401.7C230.252 401.277 230.693 400.951 231.256 400.722C231.823 400.488 232.477 400.371 233.218 400.371C234.305 400.371 235.16 400.603 235.784 401.066C236.412 401.529 236.8 402.154 236.949 402.943Z" fill="#FFF5F5"/>
<path d="M223.648 409.946C222.718 409.946 221.915 409.753 221.239 409.366C220.567 408.976 220.05 408.425 219.688 407.712C219.325 406.996 219.144 406.153 219.144 405.183C219.144 404.229 219.325 403.392 219.688 402.672C220.054 401.947 220.565 401.384 221.221 400.981C221.877 400.575 222.648 400.371 223.533 400.371C224.105 400.371 224.644 400.464 225.151 400.649C225.662 400.83 226.113 401.112 226.503 401.494C226.898 401.877 227.208 402.364 227.433 402.955C227.658 403.543 227.771 404.243 227.771 405.056V405.726H220.171V404.253H225.676C225.672 403.835 225.582 403.462 225.405 403.136C225.228 402.806 224.98 402.547 224.662 402.358C224.348 402.168 223.982 402.074 223.563 402.074C223.117 402.074 222.724 402.183 222.386 402.4C222.048 402.613 221.784 402.895 221.595 403.245C221.41 403.591 221.316 403.971 221.312 404.386V405.672C221.312 406.211 221.41 406.674 221.607 407.06C221.805 407.443 222.08 407.737 222.434 407.942C222.789 408.143 223.203 408.244 223.678 408.244C223.996 408.244 224.284 408.199 224.541 408.111C224.799 408.018 225.022 407.883 225.211 407.706C225.401 407.529 225.543 407.31 225.64 407.048L227.681 407.278C227.552 407.817 227.306 408.288 226.944 408.69C226.586 409.089 226.127 409.399 225.568 409.62C225.008 409.837 224.368 409.946 223.648 409.946Z" fill="#FFF5F5"/>
<path d="M217.295 397.401V409.765H215.11V397.401H217.295Z" fill="#FFF5F5"/>
<path d="M204.153 409.765V400.492H206.272V402.038H206.369C206.538 401.502 206.827 401.09 207.238 400.8C207.652 400.506 208.125 400.359 208.657 400.359C208.777 400.359 208.912 400.365 209.061 400.377C209.214 400.386 209.341 400.4 209.441 400.42V402.43C209.349 402.398 209.202 402.37 209.001 402.346C208.804 402.317 208.612 402.303 208.427 402.303C208.029 402.303 207.671 402.39 207.353 402.563C207.039 402.732 206.791 402.967 206.61 403.269C206.429 403.571 206.338 403.919 206.338 404.314V409.765H204.153Z" fill="#FFF5F5"/>
<path d="M198.181 409.946C197.251 409.946 196.448 409.753 195.772 409.366C195.1 408.976 194.583 408.425 194.221 407.712C193.859 406.996 193.677 406.153 193.677 405.183C193.677 404.229 193.859 403.392 194.221 402.672C194.587 401.947 195.098 401.384 195.754 400.981C196.41 400.575 197.181 400.371 198.066 400.371C198.638 400.371 199.177 400.464 199.684 400.649C200.195 400.83 200.646 401.112 201.037 401.494C201.431 401.877 201.741 402.364 201.966 402.955C202.192 403.543 202.304 404.243 202.304 405.056V405.726H194.704V404.253H200.209C200.205 403.835 200.115 403.462 199.938 403.136C199.761 402.806 199.513 402.547 199.195 402.358C198.881 402.168 198.515 402.074 198.097 402.074C197.65 402.074 197.257 402.183 196.919 402.4C196.581 402.613 196.318 402.895 196.128 403.245C195.943 403.591 195.849 403.971 195.845 404.386V405.672C195.845 406.211 195.943 406.674 196.141 407.06C196.338 407.443 196.613 407.737 196.968 407.942C197.322 408.143 197.736 408.244 198.211 408.244C198.529 408.244 198.817 408.199 199.075 408.111C199.332 408.018 199.555 407.883 199.745 407.706C199.934 407.529 200.077 407.31 200.173 407.048L202.214 407.278C202.085 407.817 201.839 408.288 201.477 408.69C201.119 409.089 200.66 409.399 200.101 409.62C199.541 409.837 198.901 409.946 198.181 409.946Z" fill="#FFF5F5"/>
<path d="M188.309 409.946C187.383 409.946 186.589 409.743 185.925 409.336C185.265 408.93 184.755 408.368 184.397 407.652C184.043 406.932 183.866 406.103 183.866 405.165C183.866 404.223 184.047 403.392 184.409 402.672C184.772 401.947 185.283 401.384 185.943 400.981C186.607 400.575 187.392 400.371 188.297 400.371C189.05 400.371 189.716 400.51 190.295 400.788C190.879 401.062 191.344 401.45 191.69 401.953C192.036 402.452 192.233 403.036 192.281 403.704H190.193C190.108 403.257 189.907 402.885 189.589 402.587C189.275 402.285 188.854 402.134 188.327 402.134C187.881 402.134 187.488 402.255 187.15 402.496C186.812 402.734 186.548 403.076 186.359 403.523C186.174 403.969 186.082 404.505 186.082 405.129C186.082 405.76 186.174 406.304 186.359 406.759C186.544 407.209 186.804 407.557 187.138 407.803C187.476 408.044 187.872 408.165 188.327 408.165C188.649 408.165 188.937 408.105 189.191 407.984C189.448 407.859 189.663 407.68 189.836 407.447C190.01 407.213 190.128 406.93 190.193 406.596H192.281C192.229 407.252 192.036 407.833 191.702 408.34C191.368 408.843 190.913 409.238 190.338 409.523C189.762 409.805 189.086 409.946 188.309 409.946Z" fill="#FFF5F5"/>
<path d="M177.171 409.952C176.584 409.952 176.054 409.847 175.583 409.638C175.117 409.425 174.746 409.111 174.473 408.696C174.203 408.282 174.068 407.771 174.068 407.163C174.068 406.64 174.165 406.207 174.358 405.865C174.551 405.523 174.815 405.249 175.149 405.044C175.483 404.839 175.859 404.684 176.278 404.579C176.7 404.471 177.137 404.392 177.588 404.344C178.131 404.287 178.572 404.237 178.91 404.193C179.248 404.145 179.493 404.072 179.646 403.976C179.803 403.875 179.882 403.72 179.882 403.511V403.474C179.882 403.02 179.747 402.668 179.477 402.418C179.208 402.168 178.819 402.044 178.312 402.044C177.777 402.044 177.352 402.16 177.038 402.394C176.728 402.627 176.519 402.903 176.41 403.221L174.37 402.931C174.531 402.368 174.797 401.897 175.167 401.518C175.537 401.136 175.99 400.85 176.525 400.661C177.06 400.468 177.652 400.371 178.3 400.371C178.747 400.371 179.191 400.424 179.634 400.528C180.077 400.633 180.481 400.806 180.848 401.048C181.214 401.285 181.508 401.609 181.729 402.02C181.954 402.43 182.067 402.943 182.067 403.559V409.765H179.966V408.491H179.894C179.761 408.749 179.574 408.99 179.332 409.216C179.095 409.437 178.795 409.616 178.433 409.753C178.075 409.886 177.654 409.952 177.171 409.952ZM177.739 408.346C178.177 408.346 178.558 408.26 178.88 408.087C179.202 407.91 179.449 407.676 179.622 407.386C179.799 407.097 179.888 406.781 179.888 406.439V405.346C179.819 405.402 179.703 405.455 179.538 405.503C179.377 405.551 179.195 405.593 178.994 405.63C178.793 405.666 178.594 405.698 178.397 405.726C178.199 405.754 178.028 405.779 177.883 405.799C177.557 405.843 177.266 405.915 177.008 406.016C176.751 406.117 176.547 406.257 176.398 406.439C176.249 406.616 176.175 406.845 176.175 407.127C176.175 407.529 176.322 407.833 176.616 408.038C176.909 408.244 177.284 408.346 177.739 408.346Z" fill="#FFF5F5"/>
<path d="M173.107 400.492V402.183H167.625V400.492H173.107ZM168.995 409.765V399.617C168.995 398.993 169.124 398.474 169.382 398.059C169.643 397.645 169.993 397.335 170.432 397.13C170.871 396.924 171.358 396.822 171.893 396.822C172.271 396.822 172.607 396.852 172.901 396.912C173.195 396.973 173.412 397.027 173.553 397.075L173.119 398.766C173.026 398.737 172.909 398.709 172.768 398.681C172.628 398.649 172.471 398.633 172.298 398.633C171.891 398.633 171.603 398.731 171.434 398.929C171.269 399.122 171.187 399.4 171.187 399.762V409.765H168.995Z" fill="#FFF5F5"/>
<path d="M166.698 400.492V402.183H161.217V400.492H166.698ZM162.587 409.765V399.617C162.587 398.993 162.716 398.474 162.974 398.059C163.235 397.645 163.585 397.335 164.024 397.13C164.463 396.924 164.95 396.822 165.485 396.822C165.863 396.822 166.199 396.852 166.493 396.912C166.787 396.973 167.004 397.027 167.145 397.075L166.71 398.766C166.618 398.737 166.501 398.709 166.36 398.681C166.219 398.649 166.062 398.633 165.889 398.633C165.483 398.633 165.195 398.731 165.026 398.929C164.861 399.122 164.779 399.4 164.779 399.762V409.765H162.587Z" fill="#FFF5F5"/>
<path d="M156.03 409.946C155.1 409.946 154.297 409.753 153.621 409.366C152.949 408.976 152.432 408.425 152.069 407.712C151.707 406.996 151.526 406.153 151.526 405.183C151.526 404.229 151.707 403.392 152.069 402.672C152.436 401.947 152.947 401.384 153.603 400.981C154.259 400.575 155.03 400.371 155.915 400.371C156.486 400.371 157.026 400.464 157.533 400.649C158.044 400.83 158.495 401.112 158.885 401.494C159.28 401.877 159.589 402.364 159.815 402.955C160.04 403.543 160.153 404.243 160.153 405.056V405.726H152.552V404.253H158.058C158.054 403.835 157.964 403.462 157.786 403.136C157.609 402.806 157.362 402.547 157.044 402.358C156.73 402.168 156.364 402.074 155.945 402.074C155.498 402.074 155.106 402.183 154.768 402.4C154.43 402.613 154.166 402.895 153.977 403.245C153.792 403.591 153.697 403.971 153.693 404.386V405.672C153.693 406.211 153.792 406.674 153.989 407.06C154.186 407.443 154.462 407.737 154.816 407.942C155.17 408.143 155.585 408.244 156.06 408.244C156.378 408.244 156.666 408.199 156.923 408.111C157.181 408.018 157.404 407.883 157.593 407.706C157.782 407.529 157.925 407.31 158.022 407.048L160.062 407.278C159.934 407.817 159.688 408.288 159.326 408.69C158.968 409.089 158.509 409.399 157.949 409.62C157.39 409.837 156.75 409.946 156.03 409.946Z" fill="#FFF5F5"/>
<defs>
<filter id="filter0_d_24_3" x="0" y="56.9663" width="396.217" height="402.632" filterUnits="userSpaceOnUse" color-interpolation-filters="sRGB">
<feFlood flood-opacity="0" result="BackgroundImageFix"/>
<feColorMatrix in="SourceAlpha" type="matrix" values="0 0 0 0 0 0 0 0 0 0 0 0 0 0 0 0 0 0 127 0" result="hardAlpha"/>
<feOffset dx="2" dy="4"/>
<feGaussianBlur stdDeviation="2.5"/>
<feComposite in2="hardAlpha" operator="out"/>
<feColorMatrix type="matrix" values="0 0 0 0 0 0 0 0 0 0 0 0 0 0 0 0 0 0 0.25 0"/>
<feBlend mode="normal" in2="BackgroundImageFix" result="effect1_dropShadow_24_3"/>
<feBlend mode="normal" in="SourceGraphic" in2="effect1_dropShadow_24_3" result="shape"/>
</filter>
<filter id="filter1_d_24_3" x="1" y="10" width="394.704" height="114.101" filterUnits="userSpaceOnUse" color-interpolation-filters="sRGB">
<feFlood flood-opacity="0" result="BackgroundImageFix"/>
<feColorMatrix in="SourceAlpha" type="matrix" values="0 0 0 0 0 0 0 0 0 0 0 0 0 0 0 0 0 0 127 0" result="hardAlpha"/>
<feOffset dx="2" dy="-1"/>
<feGaussianBlur stdDeviation="2"/>
<feComposite in2="hardAlpha" operator="out"/>
<feColorMatrix type="matrix" values="0 0 0 0 0 0 0 0 0 0 0 0 0 0 0 0 0 0 0.25 0"/>
<feBlend mode="normal" in2="BackgroundImageFix" result="effect1_dropShadow_24_3"/>
<feBlend mode="normal" in="SourceGraphic" in2="effect1_dropShadow_24_3" result="shape"/>
</filter>
<filter id="filter2_d_24_3" x="180.934" y="0" width="26.8215" height="27.4211" filterUnits="userSpaceOnUse" color-interpolation-filters="sRGB">
<feFlood flood-opacity="0" result="BackgroundImageFix"/>
<feColorMatrix in="SourceAlpha" type="matrix" values="0 0 0 0 0 0 0 0 0 0 0 0 0 0 0 0 0 0 127 0" result="hardAlpha"/>
<feOffset dx="2" dy="-1"/>
<feGaussianBlur stdDeviation="2"/>
<feComposite in2="hardAlpha" operator="out"/>
<feColorMatrix type="matrix" values="0 0 0 0 0 0 0 0 0 0 0 0 0 0 0 0 0 0 0.25 0"/>
<feBlend mode="normal" in2="BackgroundImageFix" result="effect1_dropShadow_24_3"/>
<feBlend mode="normal" in="SourceGraphic" in2="effect1_dropShadow_24_3" result="shape"/>
</filter>
<filter id="filter3_d_24_3" x="115.176" y="391.895" width="168.854" height="55.7435" filterUnits="userSpaceOnUse" color-interpolation-filters="sRGB">
<feFlood flood-opacity="0" result="BackgroundImageFix"/>
<feColorMatrix in="SourceAlpha" type="matrix" values="0 0 0 0 0 0 0 0 0 0 0 0 0 0 0 0 0 0 127 0" result="hardAlpha"/>
<feOffset dx="6" dy="6"/>
<feGaussianBlur stdDeviation="2"/>
<feComposite in2="hardAlpha" operator="out"/>
<feColorMatrix type="matrix" values="0 0 0 0 0 0 0 0 0 0 0 0 0 0 0 0 0 0 0.25 0"/>
<feBlend mode="normal" in2="BackgroundImageFix" result="effect1_dropShadow_24_3"/>
<feBlend mode="normal" in="SourceGraphic" in2="effect1_dropShadow_24_3" result="shape"/>
</filter>
</defs>
</svg>
